<?xml version="1.0" encoding="UTF-8" standalone="no"?>
<svg
   xmlns:dc="http://purl.org/dc/elements/1.1/"
   xmlns:cc="http://creativecommons.org/ns#"
   xmlns:rdf="http://www.w3.org/1999/02/22-rdf-syntax-ns#"
   xmlns:svg="http://www.w3.org/2000/svg"
   xmlns="http://www.w3.org/2000/svg"
   xmlns:sodipodi="http://sodipodi.sourceforge.net/DTD/sodipodi-0.dtd"
   xmlns:inkscape="http://www.inkscape.org/namespaces/inkscape"
   id="Layer_3"
   height="24182.51"
   viewBox="0 0 26.000013 3022.8137"
   width="208.00011"
   data-name="Layer 3"
   version="1.1"
   sodipodi:docname="404top.svg"
   inkscape:version="0.92.5 (2060ec1f9f, 2020-04-08)">
  <metadata
     id="metadata49">
    <rdf:RDF>
      <cc:Work
         rdf:about="">
        <dc:format>image/svg+xml</dc:format>
        <dc:type
           rdf:resource="http://purl.org/dc/dcmitype/StillImage" />
        <dc:title></dc:title>
      </cc:Work>
    </rdf:RDF>
  </metadata>
  <defs
     id="defs47" />
  <sodipodi:namedview
     pagecolor="#ffffff"
     bordercolor="#666666"
     borderopacity="1"
     objecttolerance="10"
     gridtolerance="10"
     guidetolerance="10"
     inkscape:pageopacity="0"
     inkscape:pageshadow="2"
     inkscape:window-width="2877"
     inkscape:window-height="1126"
     id="namedview45"
     showgrid="false"
     inkscape:zoom="0.01"
     inkscape:cx="-24280.923"
     inkscape:cy="7123.2742"
     inkscape:window-x="0"
     inkscape:window-y="26"
     inkscape:window-maximized="0"
     inkscape:current-layer="Layer_3" />
  <path
     d="m 1.0000007,3005.8136 v 14 a 2,2 0 0 0 2,2 H 23.000001 a 2,2 0 0 0 2,-2 v -14 z"
     id="path2-3"
     inkscape:connector-curvature="0"
     style="fill:#4d4d4d;stroke-width:1" />
  <path
     d="M 1.0000007,3005.8136 H 25.000001 v -11 l -4,-7 v -8 H 5.0000007 v 8 l -4,7 z"
     id="path10-3"
     inkscape:connector-curvature="0"
     style="fill:#474747;stroke-width:1" />
  <path
     d="m 19.000001,2979.8136 v -4 H 7.0000007 v 4"
     id="path12-5"
     inkscape:connector-curvature="0"
     style="fill:#47474f;fill-opacity:0.94117647;stroke-width:1" />
  <path
     d="M 9.0000007,2975.8136 V 1.0736 h 8.0000003 v 2974.74"
     id="path14-6"
     inkscape:connector-curvature="0"
     style="fill:#353535;fill-opacity:1;stroke-width:1"
     sodipodi:nodetypes="cccc" />
  <path
     d="M 14.410499,2973.8136 V 4.1883 H 9.4104984 v 2971.6253 h 3.0000006 c 1.1046,0 2,-0.8955 2,-2 z"
     id="path16-2"
     inkscape:connector-curvature="0"
     style="fill:#474747;fill-opacity:1;stroke-width:1"
     sodipodi:nodetypes="scccss" />
  <g
     id="g28-9"
     style="fill:#686868"
     transform="rotate(180,22.499989,1511.9069)">
    <path
       d="m 24,39 h 16 v 2 H 24 Z"
       id="path18-1"
       inkscape:connector-curvature="0" />
    <path
       d="M 23.429,35 24,36 v 1 h 16 v -1 l 0.571,-1 z"
       id="path20-2"
       inkscape:connector-curvature="0" />
  </g>
  <rect
     height="12"
     rx="2"
     width="6"
     x="-16.000008"
     y="-3007.8135"
     id="rect30-3"
     style="fill:#f0ae42;stroke-width:1"
     ry="2"
     transform="scale(-1)" />
  <path
     d="m 13.000001,2999.5396 v 8.274 h 1 a 2,2 0 0 0 2,-2 v -7.274 h -2 a 1,1 0 0 0 -1,1 z"
     id="path32-6"
     inkscape:connector-curvature="0"
     style="fill:#f9d266;stroke-width:1" />
  <path
     d="m 9.0000007,2978.8136 v 1 H 19.000001 v -2 h -9 a 1,1 0 0 0 -1.0000003,1 z"
     id="path34-0"
     inkscape:connector-curvature="0"
     style="fill:#353535;fill-opacity:1;stroke-width:1" />
  <path
     style="stroke-width:1"
     d="M 3.0000007,3022.8136 H 23.000001 c 1.6569,0 3,-1.3431 3,-3 v -25 c 9e-4,-0.1754 -0.045,-0.3479 -0.132,-0.5 l -3.868,-6.766 v -7.734 c 0,-0.5523 -0.4477,-1 -1,-1 h -1 v -3 c 0,-0.5523 -0.4477,-1 -1,-1 h -1 V 1 c 0,-0.5522 -0.4477,-1 -1,-1 H 9.0000007 c -0.5523,0 -1,0.4478 -1,1 v 2973.8136 h -1 c -0.5523,0 -1,0.4477 -1,1 v 3 h -1 c -0.5523,0 -1,0.4477 -1,1 v 7.734 l -3.86800004,6.77 c -0.087,0.1509 -0.13219999917,0.322 -0.13199999916857,0.496 v 25 c 0,1.6569 1.34310003916857,3 3.00000003916857,3 z m 20.0000003,-2 h -1 c -13.1016058,0 -5.5,0 -18.0000003,0 h -1 c -0.5523,0 -1,-0.4477 -1,-1 v -13 h 7.184 c 0.4223,1.1944 1.5492003,1.9948 2.8160003,2 h 2 c 1.2668,-0.01 2.3937,-0.8056 2.816,-2 h 7.184 v 13 c 0,0.5523 -0.4477,1 -1,1 z m -12,-15 v -8 c 0,-0.5523 0.4477,-1 1,-1 h 2 c 0.5523,0 1,0.4477 1,1 v 8 c 0,0.5523 -0.4477,1 -1,1 h -2 c -0.5523,0 -1,-0.4477 -1,-1 z m 9,-19 H 6.0000007 v -2 H 20.000001 Z M 10.000001,2 h 6 v 2972.8136 h -6 z M 8.0000007,2976.8136 H 18.000001 v 2 H 8.0000007 Z m 12.0000003,4 v 2 H 6.0000007 v -2 z m -14.4200003,8 H 20.420001 l 3.58,6.266 v 9.734 h -7 v -7 c 0,-1.6569 -1.3431,-3 -3,-3 h -2 c -1.6569,0 -3.0000003,1.3431 -3.0000003,3 v 7 h -7 v -9.734 z"
     id="path36-6"
     inkscape:connector-curvature="0"
     sodipodi:nodetypes="ssscccsscsscsssscsscsscccsssccssccccccssssssssssscccccccccccccccccccccccccsssscccc" />
</svg>
